<svg width="376" height="1503" viewBox="0 0 376 1503" fill="none" xmlns="http://www.w3.org/2000/svg">
<path d="M193.478 1497.16C161.256 1498.15 145.145 1498.65 131.714 1496.45C74.4884 1487.08 28.8886 1443.53 16.8993 1386.8C14.0854 1373.48 13.8402 1357.37 13.3499 1325.13L3.10799 651.797C2.55306 615.314 2.27559 597.072 5.41313 581.916C16.4623 528.544 57.3716 486.37 110.383 473.703C125.437 470.106 143.678 469.829 180.162 469.274C216.645 468.719 234.887 468.441 250.042 471.579C303.415 482.628 345.588 523.537 358.255 576.549C361.852 591.602 362.13 609.844 362.685 646.327L372.856 1315.03C373.413 1351.63 373.691 1369.93 370.559 1385.07C359.36 1439.22 317.449 1481.77 263.474 1493.8C248.381 1497.16 230.08 1497.16 193.478 1497.16Z" fill="#C3FF01"/>
<rect x="122.881" y="579.521" width="433.062" height="126.626" rx="24.059" transform="rotate(-91.298 122.881 579.521)" fill="#C3FF01"/>
<path d="M116.236 239.53C114.337 230.034 114.337 174.951 114.337 174.951C114.337 174.951 235.265 169.885 241.596 188.246C247.928 206.607 118.136 249.027 116.236 239.53Z" fill="black"/>
<path d="M113.071 189.513C109.169 186.805 108.007 185.081 103.574 181.916C99.1418 178.75 100.41 112.271 103.574 102.774C106.739 93.2775 123.834 88.8455 132.698 90.7449C141.563 92.6443 152.326 102.774 161.823 102.774H183.349C183.349 102.774 198.429 103.181 207.408 100.242C211.512 98.8986 217.538 95.81 217.538 95.81C217.538 95.81 221.337 93.9106 228.934 90.7449C236.531 87.5793 244.763 90.7449 244.763 90.7449C244.763 90.7449 257.426 97.7094 259.325 102.774C261.223 107.839 261.223 125.541 261.223 140.129C261.223 156.448 261.137 174.951 259.325 181.916C257.513 188.88 242.23 193.312 242.23 193.312C242.23 193.312 230.549 198.807 222.603 200.91C212.968 203.459 207.219 203.355 197.278 204.075C183.468 205.076 175.635 205.042 161.823 204.075C151.635 203.363 145.636 203.876 135.864 200.91C126.342 198.019 121.247 195.187 113.071 189.513Z" fill="#C3FF01"/>
<path d="M142.911 109.739C142.911 109.739 125.1 15.4023 132.064 6.43846C139.028 -2.52534 225.134 0.00717926 230.2 6.43846C235.265 12.8697 215.221 109.739 215.221 109.739H142.911Z" fill="black"/>
</svg>
