<svg width="18" height="18" viewBox="0 0 18 18" fill="none" xmlns="http://www.w3.org/2000/svg">
<path d="M3 0C2.20435 0 1.44129 0.31607 0.87868 0.87868C0.31607 1.44129 0 2.20435 0 3L0 5.4C0 12.3588 5.6412 18 12.6 18H15C15.7957 18 16.5587 17.6839 17.1213 17.1213C17.6839 16.5587 18 15.7957 18 15V13.3416C18 13.0071 17.9068 12.6793 17.7309 12.3949C17.5549 12.1104 17.3032 11.8806 17.004 11.7312L14.106 10.2816C13.8753 10.1663 13.6225 10.1018 13.3647 10.0927C13.1069 10.0836 12.8501 10.13 12.6118 10.2288C12.3735 10.3276 12.1593 10.4764 11.9835 10.6652C11.8078 10.8541 11.6747 11.0784 11.5932 11.3232L11.2356 12.3948C11.1698 12.5915 11.0345 12.7574 10.8551 12.8614C10.6758 12.9655 10.4646 13.0005 10.2612 12.96C8.9729 12.7023 7.78967 12.0691 6.86056 11.1402C5.93144 10.2113 5.29799 9.02824 5.04 7.74C4.99949 7.53662 5.03454 7.32545 5.13859 7.14607C5.24264 6.96669 5.40855 6.83141 5.6052 6.7656L6.936 6.3216C7.36607 6.17799 7.7261 5.87735 7.94412 5.4798C8.16214 5.08224 8.2221 4.61705 8.112 4.1772L7.4088 1.3644C7.31168 0.975022 7.08723 0.629264 6.77111 0.382058C6.45498 0.134853 6.06531 0.000378443 5.664 0L3 0Z" fill="#C3FF01"/>
</svg>
