<svg width="50" height="50" viewBox="0 0 50 50" fill="none" xmlns="http://www.w3.org/2000/svg">
<g clip-path="url(#clip0_2002_50)">
<path fill-rule="evenodd" clip-rule="evenodd" d="M25 50C38.8071 50 50 38.8071 50 25C50 11.1929 38.8071 0 25 0C11.1929 0 0 11.1929 0 25C0 38.8071 11.1929 50 25 50ZM13.5983 16.0984C14.3016 15.3951 15.2555 15 16.25 15H33.75C34.7445 15 35.6984 15.3951 36.4016 16.0984C37.1049 16.8016 37.5 17.7554 37.5 18.75V31.25C37.5 32.2445 37.1049 33.1984 36.4016 33.9016C35.6984 34.6049 34.7445 35 33.75 35H16.25C15.2555 35 14.3016 34.6049 13.5983 33.9016C12.8951 33.1984 12.5 32.2445 12.5 31.25V18.75C12.5 17.7554 12.8951 16.8016 13.5983 16.0984ZM25.8875 24.85L33.2375 17.5H16.7625L24.1125 24.85C24.2287 24.9671 24.367 25.0602 24.5193 25.1236C24.6716 25.187 24.835 25.2197 25 25.2197C25.165 25.2197 25.3284 25.187 25.4807 25.1236C25.633 25.0602 25.7713 24.9671 25.8875 24.85ZM34.6339 32.1339C34.8683 31.8995 35 31.5815 35 31.25V19.2625L27.65 26.6125C26.9468 27.3147 25.9937 27.7092 25 27.7092C24.0063 27.7092 23.0532 27.3147 22.35 26.6125L15 19.2625V31.25C15 31.5815 15.1317 31.8995 15.3661 32.1339C15.6006 32.3683 15.9185 32.5 16.25 32.5H33.75C34.0815 32.5 34.3994 32.3683 34.6339 32.1339Z" fill="black"/>
</g>
<defs>
<clipPath id="clip0_2002_50">
<rect width="50" height="50" fill="white"/>
</clipPath>
</defs>
</svg>
