<svg width="41" height="40" viewBox="0 0 41 40" fill="none" xmlns="http://www.w3.org/2000/svg">
<g clip-path="url(#clip0_218_849)">
<path fill-rule="evenodd" clip-rule="evenodd" d="M20.4834 40C31.5291 40 40.4834 31.0457 40.4834 20C40.4834 8.95432 31.5291 0 20.4834 0C9.43772 0 0.483398 8.95432 0.483398 20C0.483398 31.0457 9.43772 40 20.4834 40ZM10.4834 15.7567C10.4834 12.5823 13.066 10 16.2401 10H24.7267C27.9011 10 30.4834 12.5826 30.4834 15.7567V24.3211C30.4834 27.4952 27.9011 30.0778 24.7267 30.0778H16.2401C13.0657 30.0778 10.4834 27.4952 10.4834 24.3211V15.7567ZM24.7267 28.1727C26.8504 28.1727 28.5782 26.4448 28.5782 24.3211V15.7567C28.5782 13.633 26.8504 11.9052 24.7267 11.9052H16.2401C14.1164 11.9052 12.3886 13.633 12.3886 15.7567V24.3211C12.3886 26.4448 14.1164 28.1727 16.2401 28.1727H24.7267ZM15.2787 20.0022C15.2787 17.1539 17.6209 14.8369 20.4993 14.8369C23.3776 14.8369 25.7198 17.1539 25.7198 20.0022C25.7198 22.8501 23.3776 25.1671 20.4993 25.1671C17.6206 25.1671 15.2787 22.8501 15.2787 20.0022ZM17.1803 20.0022C17.1803 21.8013 18.669 23.2655 20.4993 23.2655C22.3295 23.2655 23.8183 21.8016 23.8183 20.0022C23.8183 18.2026 22.3292 16.7388 20.4993 16.7388C18.669 16.7388 17.1803 18.2026 17.1803 20.0022ZM25.8133 15.8542C26.4917 15.8542 27.0416 15.3042 27.0416 14.6258C27.0416 13.9475 26.4917 13.3975 25.8133 13.3975C25.1349 13.3975 24.585 13.9475 24.585 14.6258C24.585 15.3042 25.1349 15.8542 25.8133 15.8542Z" fill="black"/>
</g>
<defs>
<clipPath id="clip0_218_849">
<rect width="40" height="40" fill="white" transform="translate(0.483398)"/>
</clipPath>
</defs>
</svg>
