<svg width="40" height="40" viewBox="0 0 40 40" fill="none" xmlns="http://www.w3.org/2000/svg">
<g clip-path="url(#clip0_2001_973)">
<path fill-rule="evenodd" clip-rule="evenodd" d="M20 40C31.0457 40 40 31.0457 40 20C40 8.95432 31.0457 0 20 0C8.95432 0 0 8.95432 0 20C0 31.0457 8.95432 40 20 40ZM27.5443 24.8V18.6096C27.5443 15.2936 25.7736 13.7505 23.4111 13.7505C21.5047 13.7505 20.653 14.7998 20.176 15.5344V14.0042H16.5865C16.6348 15.0176 16.5865 24.8 16.5865 24.8H20.1766V18.771C20.1766 18.4482 20.2011 18.1268 20.2958 17.896C20.5556 17.2504 21.1457 16.5831 22.1373 16.5831C23.4361 16.5831 23.9553 17.5732 23.9553 19.0241V24.8H27.5443ZM20.176 15.5344V15.5694H20.1525C20.1561 15.5636 20.1603 15.5576 20.1645 15.5515C20.1685 15.5457 20.1725 15.54 20.176 15.5344ZM10.8 10.6651C10.8 9.60552 11.6031 8.8 12.8313 8.8C14.0598 8.8 14.8146 9.60552 14.8382 10.6651C14.8382 11.7014 14.0598 12.5314 12.8078 12.5314H12.7839C11.5802 12.5314 10.8 11.7014 10.8 10.6651ZM14.6019 24.8H11.0133V14.0042H14.6019V24.8Z" fill="black"/>
</g>
<defs>
<clipPath id="clip0_2001_973">
<rect width="40" height="40" fill="white"/>
</clipPath>
</defs>
</svg>
