<svg width="41" height="40" viewBox="0 0 41 40" fill="none" xmlns="http://www.w3.org/2000/svg">
<g clip-path="url(#clip0_218_851)">
<path fill-rule="evenodd" clip-rule="evenodd" d="M20.0596 40C31.1053 40 40.0596 31.0457 40.0596 20C40.0596 8.95432 31.1053 0 20.0596 0C9.01389 0 0.0595703 8.95432 0.0595703 20C0.0595703 31.0457 9.01389 40 20.0596 40ZM28.8505 12.7778C29.0046 11.0257 27.1545 11.7471 27.1545 11.7471C25.7884 12.3126 24.3795 12.8873 22.9555 13.4682C18.5399 15.2693 13.9781 17.1301 10.092 18.9614C7.98489 19.7344 9.21833 20.5074 9.21833 20.5074L12.5589 21.538C14.1007 22.0018 14.923 21.4865 14.923 21.4865L22.118 16.591C24.6876 14.839 24.0709 16.2819 23.4542 16.9002L18.0579 22.0533C17.2356 22.7747 17.6468 23.3931 18.0065 23.7023C19.0261 24.6019 21.5342 26.2478 22.6292 26.9664C22.9141 27.1533 23.1034 27.2775 23.1458 27.3094C23.4028 27.5156 24.7904 28.4431 25.7155 28.237C26.6406 28.0309 26.7433 26.8457 26.7433 26.8457L27.9768 18.7553C28.1618 17.3508 28.374 16.0008 28.5435 14.9226C28.7035 13.9041 28.8255 13.1282 28.8505 12.7778Z" fill="black"/>
</g>
<defs>
<clipPath id="clip0_218_851">
<rect width="40" height="40" fill="white" transform="translate(0.0595703)"/>
</clipPath>
</defs>
</svg>
